<svg data-v-0dd9719b="" version="1.0" xmlns="http://www.w3.org/2000/svg" xmlns:xlink="http://www.w3.org/1999/xlink" width="100%" height="100%" viewBox="0 0 340.000000 250.000000" preserveAspectRatio="xMidYMid meet" color-interpolation-filters="sRGB" style="margin: auto;"> <rect data-v-0dd9719b="" x="0" y="0" width="100%" height="100%" fill="#fff" fill-opacity="1" class="background"></rect> <rect data-v-0dd9719b="" x="0" y="0" width="100%" height="100%" fill="url(#watermark)" fill-opacity="1" class="watermarklayer"></rect> <g data-v-0dd9719b="" fill="#333" class="iconblsvg-g iconsvg" transform="translate(67.55281829833984,111.02109241485596)"><g class="tp-name"><g data-gra="path-name" transform="translate(0, 2.3303417017547474)"><g transform="scale(1)"><path d="M18.09 3.67L18.09 3.67 3.07 3.67 3.07-16.9 5.56-16.9 5.56 1.18 18.09 1.18 18.09 3.67ZM16.2-6.07L16.2-6.07 3.29-6.07 3.29-8.6 16.2-8.6 16.2-6.07ZM17.86-15.82L17.86-15.82 2.24-15.82 2.24-18.34 17.86-18.34 17.86-15.82ZM38.44 3.67L38.44 3.67 30.71-15.82 28.28-15.82 28.28-18.34 32.4-18.34 40.77 2.75 38.44 3.67ZM23.65 3.74L23.65 3.74 21.31 2.81 29.4-17.48 31.73-16.55 23.65 3.74ZM36.94-2.91L36.94-2.91 25.63-2.91 25.63-5.43 36.94-5.43 36.94-2.91ZM51.13 3.99L51.13 3.99Q50.87 3.99 50.6 3.98 50.33 3.96 50.07 3.93L50.07 3.93Q49.21 3.83 48.24 3.5 47.26 3.16 46.38 2.46 45.5 1.76 44.77 0.62 44.03-0.51 43.62-2.2L43.62-2.2 46.05-2.81Q47.01 1.02 50.36 1.44L50.36 1.44Q51.22 1.53 52.13 1.41 53.04 1.28 53.83 0.89 54.61 0.51 55.15-0.11 55.7-0.73 55.86-1.57L55.86-1.57Q55.95-2.17 55.89-2.91 55.82-3.64 55.28-4.38 54.74-5.11 53.57-5.82 52.41-6.52 50.3-7.06L50.3-7.06Q48.6-7.51 47.31-8.44 46.01-9.36 45.31-10.64L45.31-10.64Q44.16-12.72 44.9-15.02L44.9-15.02Q45.5-16.94 47.07-18.07 48.63-19.2 50.78-19.3L50.78-19.3Q51.83-19.33 52.98-19.04 54.13-18.76 55.2-18.13 56.27-17.51 57.17-16.5 58.06-15.5 58.64-14.09L58.64-14.09 56.3-13.17Q55.89-14.22 55.23-14.92 54.58-15.63 53.84-16.04 53.11-16.46 52.33-16.63 51.54-16.81 50.87-16.78L50.87-16.78Q49.53-16.71 48.59-16.04 47.64-15.37 47.29-14.25L47.29-14.25Q46.91-12.94 47.52-11.86L47.52-11.86Q47.96-11.06 48.86-10.43 49.75-9.81 50.94-9.49L50.94-9.49Q53.56-8.79 55.11-7.8 56.66-6.81 57.44-5.67 58.22-4.54 58.36-3.36 58.51-2.17 58.32-1.12L58.32-1.12Q58.09 0.13 57.41 1.09 56.72 2.05 55.73 2.68 54.74 3.32 53.54 3.66 52.34 3.99 51.13 3.99ZM71.58 3.39L71.58 3.39 69.05 3.39 69.05-17.19 71.58-17.19 71.58 3.39ZM78.61-15.95L78.61-15.95 62.02-15.95 62.02-18.44 78.61-18.44 78.61-15.95Z" transform="translate(-2.240000009536743, 19.302812576293945)"></path></g></g> <g transform="translate(79.37000274658203, 0)"><g><g class="imagesvg"><g><rect fill="#333" fill-opacity="0" stroke-width="2" x="0" y="0" width="26.084363181946593" height="27.957816463141718" class="image-rect"></rect> <svg x="0" y="0" width="26.084363181946593" height="27.957816463141718" filtersec="colorsb1727749761" class="image-svg-svg primary" style="overflow: visible;"><svg xmlns="http://www.w3.org/2000/svg" viewBox="-0.01394294761121273 -0.014386847615242004 51.84867477416992 55.57231903076172"><g fill-rule="evenodd"><path d="M24.16 24c-1.88-.28-3.07-2.48-4.1-4.38a27.56 27.56 0 0 1-2.42-6c-1.53-5.81-.35-13 5.5-13.6 5.26-.53 8.11 5.18 5.49 9.32C28 10.32 27.05 11 26.4 12a14.62 14.62 0 0 0-2 7.73c.02 1.27.4 2.78-.24 4.27z" fill="#fcb813"></path><path d="M28.35 24.44a3.77 3.77 0 0 1 0-2.61c.79-2.82 3.18-5.88 5.31-8 2.4-2.4 5.17-4.48 8.85-4.75a8.26 8.26 0 0 1 4.1.56c2.66 1.36 4.38 6 2 9a6.63 6.63 0 0 1-4.93 2.24c-1.31 0-2.57-.72-4.1-.75a13.56 13.56 0 0 0-6.15 1.59c-1.87.91-3.11 2.21-5.08 2.72z" fill="#b62467"></path><path d="M5.44 12.89a6.28 6.28 0 0 1 6.15 3.63c.27.66.19 1.19.46 2.05 1.15 3.62 4.78 5.85 8.2 7.54.41.21 1.48.53 1.49 1.12 0 1-2.6 1.4-3.91 1.49-6 .44-11.31-1-14.62-3.91A8 8 0 0 1 0 17.92a5.7 5.7 0 0 1 5.44-5.03z" fill="#00a551"></path><path d="M33.85 27c6.2-.57 12.58 1.47 15.55 4.47a7.82 7.82 0 0 1 2.42 6.15 5.88 5.88 0 0 1-6.24 5.22 6.36 6.36 0 0 1-5.12-3.54c-.61-1.35-.78-2.89-1.4-3.92-1.56-2.61-4.48-4.34-7.45-5.86-.28-.15-1.46-.51-1.49-1.12-.04-1.12 2.78-1.4 3.73-1.4z" fill="#00acdc"></path><path d="M22.86 31.24c.74-.09 1-.09.84 1.39-.36 3.31-3.32 6.82-5.22 8.85-2.75 3-9.32 7.54-14 3.91a6.41 6.41 0 0 1-1.86-7.17 6 6 0 0 1 6-3.54c1.45.07 2.26.73 3.82.75 4.47.06 6.65-2.25 10.15-4.19.05-.04.2 0 .27 0z" fill="#ec1c24"></path><path d="M27.79 31.61c1.51.28 3 2.63 3.82 4.1a25.11 25.11 0 0 1 2.33 5.4c1.81 6.15.86 14.07-5.4 14.44a6 6 0 0 1-5.5-9c.64-1.1 1.55-1.42 2.43-2.7 1.4-2 2-5 2-8.66a10.54 10.54 0 0 1 .1-3.35.53.53 0 0 1 .22-.23z" fill="#c9da2a"></path></g></svg></svg> <!----></g></g></g></g> <g data-gra="path-name-1" fill="#333" transform="translate(108.45436477661133, 2.3303417017547474)"><g transform="scale(1)"><path d="M4.89 3.67L4.89 3.67 2.36 3.67 2.36-18.25 4.89-18.25 4.89 3.67ZM15.53-6.07L15.53-6.07 2.59-6.07 2.59-8.6 15.53-8.6 15.53-6.07ZM17.19-15.82L17.19-15.82 1.53-15.82 1.53-18.34 17.19-18.34 17.19-15.82ZM29.56 3.29L29.56 3.29Q27.74 3.29 26.12 2.44 24.51 1.6 23.26-0.03L23.26-0.03Q22.08-1.57 21.46-3.5 20.83-5.43 20.83-7.57L20.83-7.57Q20.83-9.71 21.46-11.66 22.08-13.61 23.26-15.15L23.26-15.15Q24.51-16.78 26.12-17.62 27.74-18.47 29.56-18.47L29.56-18.47Q31.35-18.47 32.96-17.62 34.57-16.78 35.82-15.15L35.82-15.15Q37-13.61 37.63-11.66 38.25-9.71 38.25-7.57L38.25-7.57Q38.25-5.43 37.63-3.5 37-1.57 35.82-0.03L35.82-0.03Q34.57 1.6 32.96 2.44 31.35 3.29 29.56 3.29ZM29.56-15.95L29.56-15.95Q28.28-15.95 27.15-15.29 26.01-14.64 25.16-13.5 24.32-12.37 23.82-10.83 23.33-9.3 23.33-7.57L23.33-7.57Q23.33-5.85 23.82-4.33 24.32-2.81 25.16-1.68 26.01-0.54 27.15 0.11 28.28 0.77 29.56 0.77L29.56 0.77Q30.84 0.77 31.97 0.11 33.1-0.54 33.94-1.68 34.77-2.81 35.26-4.33 35.76-5.85 35.76-7.57L35.76-7.57Q35.76-9.3 35.26-10.83 34.77-12.37 33.94-13.5 33.1-14.64 31.97-15.29 30.84-15.95 29.56-15.95ZM51.7 3.2L51.7 3.2Q49.79 3.2 48.09 2.35 46.4 1.5 45.14 0.02 43.87-1.47 43.14-3.44 42.4-5.4 42.4-7.67L42.4-7.67Q42.4-9.91 43.14-11.89 43.87-13.87 45.14-15.34 46.4-16.81 48.09-17.67 49.79-18.53 51.7-18.53L51.7-18.53Q53.91-18.53 55.84-17.42 57.77-16.3 59.12-14.22L59.12-14.22 57.01-12.85Q56.05-14.38 54.66-15.19 53.27-16.01 51.7-16.01L51.7-16.01Q50.3-16.01 49.07-15.35 47.84-14.7 46.91-13.56 45.98-12.43 45.44-10.91 44.9-9.39 44.9-7.67L44.9-7.67Q44.9-5.94 45.44-4.43 45.98-2.91 46.91-1.76 47.84-0.61 49.07 0.05 50.3 0.7 51.7 0.7L51.7 0.7Q53.27 0.7 54.66-0.13 56.05-0.96 57.01-2.49L57.01-2.49 59.12-1.12Q57.77 0.96 55.84 2.08 53.91 3.2 51.7 3.2ZM71.71 3.58L71.71 3.58Q70.08 3.58 68.62 3.05 67.17 2.52 66.08 1.61 65 0.7 64.37-0.53 63.75-1.76 63.75-3.16L63.75-3.16 63.75-15.82 62.92-15.82 62.92-18.34 66.27-18.34 66.27-3.16Q66.27-2.3 66.71-1.52 67.14-0.73 67.87-0.16 68.61 0.42 69.6 0.75 70.59 1.09 71.71 1.09L71.71 1.09Q72.82 1.09 73.82 0.75 74.81 0.42 75.54-0.16 76.28-0.73 76.71-1.52 77.14-2.3 77.14-3.16L77.14-3.16 77.14-18.37 79.63-18.37 79.63-3.16Q79.63-1.76 79.01-0.53 78.38 0.7 77.31 1.61 76.24 2.52 74.79 3.05 73.34 3.58 71.71 3.58ZM90.46 3.99L90.46 3.99Q90.21 3.99 89.94 3.98 89.66 3.96 89.41 3.93L89.41 3.93Q88.55 3.83 87.57 3.5 86.6 3.16 85.72 2.46 84.84 1.76 84.1 0.62 83.37-0.51 82.95-2.2L82.95-2.2 85.38-2.81Q86.34 1.02 89.7 1.44L89.7 1.44Q90.56 1.53 91.47 1.41 92.38 1.28 93.16 0.89 93.95 0.51 94.49-0.11 95.03-0.73 95.19-1.57L95.19-1.57Q95.29-2.17 95.22-2.91 95.16-3.64 94.62-4.38 94.07-5.11 92.91-5.82 91.74-6.52 89.63-7.06L89.63-7.06Q87.94-7.51 86.64-8.44 85.35-9.36 84.65-10.64L84.65-10.64Q83.5-12.72 84.23-15.02L84.23-15.02Q84.84-16.94 86.41-18.07 87.97-19.2 90.11-19.3L90.11-19.3Q91.17-19.33 92.32-19.04 93.47-18.76 94.54-18.13 95.61-17.51 96.5-16.5 97.4-15.5 97.97-14.09L97.97-14.09 95.64-13.17Q95.22-14.22 94.57-14.92 93.91-15.63 93.18-16.04 92.44-16.46 91.66-16.63 90.88-16.81 90.21-16.78L90.21-16.78Q88.87-16.71 87.92-16.04 86.98-15.37 86.63-14.25L86.63-14.25Q86.25-12.94 86.85-11.86L86.85-11.86Q87.3-11.06 88.19-10.43 89.09-9.81 90.27-9.49L90.27-9.49Q92.89-8.79 94.44-7.8 95.99-6.81 96.77-5.67 97.56-4.54 97.7-3.36 97.84-2.17 97.65-1.12L97.65-1.12Q97.43 0.13 96.74 1.09 96.06 2.05 95.06 2.68 94.07 3.32 92.88 3.66 91.68 3.99 90.46 3.99Z" transform="translate(-1.5299999713897705, 19.302812576293945)"></path></g></g></g> <!----></g><defs v-gra="od"></defs></svg>